<?xml version="1.0" standalone="no"?>
<!DOCTYPE svg PUBLIC "-//W3C//DTD SVG 20010904//EN"
 "http://www.w3.org/TR/2001/REC-SVG-20010904/DTD/svg10.dtd">
<svg version="1.0" xmlns="http://www.w3.org/2000/svg"
 width="644.000000pt" height="169.000000pt" viewBox="0 0 644.000000 169.000000"
 preserveAspectRatio="xMidYMid meet">

<g transform="translate(0.000000,169.000000) scale(0.100000,-0.100000)"
fill="#000000" stroke="none">
<path d="M2612 358 c-7 -7 -12 -22 -12 -35 0 -13 -7 -26 -15 -29 -8 -4 -15
-14 -15 -24 0 -10 7 -20 15 -24 11 -4 15 -22 15 -71 l0 -65 30 0 30 0 0 70 c0
56 3 70 15 70 8 0 15 9 15 20 0 13 -7 20 -20 20 -11 0 -20 7 -20 15 0 14 11
19 36 16 14 -2 27 27 18 40 -8 13 -78 11 -92 -3z"/>
<path d="M3970 240 l0 -130 30 0 30 0 0 66 c0 57 2 65 18 62 14 -3 18 -16 20
-66 3 -58 4 -62 27 -62 24 0 25 2 25 79 0 88 -10 105 -60 103 -28 -1 -30 2
-30 39 0 37 -2 39 -30 39 l-30 0 0 -130z"/>
<path d="M3330 314 c0 -9 -8 -23 -17 -29 -17 -13 -17 -14 0 -32 12 -14 17 -37
17 -81 l0 -62 30 0 30 0 0 66 c0 57 3 67 20 71 11 3 20 14 20 24 0 12 -7 19
-20 19 -13 0 -20 7 -20 20 0 16 -7 20 -30 20 -21 0 -30 -5 -30 -16z"/>
<path d="M2718 275 c-10 -23 -10 -28 5 -36 13 -8 17 -24 17 -69 0 -60 0 -60
30 -60 29 0 29 1 32 63 2 51 6 62 20 61 10 -1 19 8 23 24 9 36 -7 47 -42 30
-25 -13 -32 -13 -51 0 -20 13 -22 12 -34 -13z"/>
<path d="M2921 289 c-36 -14 -50 -39 -51 -90 0 -62 28 -89 93 -89 48 0 61 8
52 33 -4 9 -19 14 -38 13 -44 -1 -50 18 -7 22 56 5 77 50 43 90 -22 25 -60 33
-92 21z m47 -61 c-7 -19 -38 -22 -38 -4 0 10 9 16 21 16 12 0 19 -5 17 -12z"/>
<path d="M3100 287 c-53 -27 -67 -111 -25 -153 21 -21 33 -25 73 -22 39 3 47
6 47 23 0 17 -6 19 -37 17 -29 -3 -38 0 -38 12 0 11 10 16 33 16 40 0 57 15
57 49 0 34 -10 48 -43 60 -35 14 -36 14 -67 -2z m50 -62 c0 -8 -6 -15 -14 -15
-17 0 -28 14 -19 24 12 12 33 6 33 -9z"/>
<path d="M3450 280 c-9 -17 -8 -25 4 -39 11 -12 16 -37 16 -74 0 -56 0 -57 30
-57 29 0 29 1 32 63 2 51 6 62 20 61 10 -1 19 8 23 24 9 36 -7 47 -42 30 -25
-13 -32 -13 -50 -1 -19 13 -23 12 -33 -7z"/>
<path d="M3643 293 c-36 -7 -31 -43 5 -43 46 0 46 -13 0 -25 -53 -13 -71 -48
-45 -89 15 -23 22 -25 92 -24 l75 1 0 28 c0 16 -4 29 -9 29 -5 0 -11 21 -15
48 -3 26 -10 52 -14 58 -9 14 -58 23 -89 17z m47 -119 c0 -8 -9 -14 -20 -14
-22 0 -26 10 -8 28 13 13 28 7 28 -14z"/>
<path d="M3833 290 c-46 -18 -41 -80 9 -106 20 -11 27 -19 20 -26 -7 -7 -17
-6 -30 1 -27 14 -29 14 -36 -5 -11 -28 13 -44 65 -44 40 0 51 4 65 25 21 33
15 56 -23 80 -39 24 -42 39 -8 33 18 -4 26 0 31 14 3 11 4 21 2 22 -10 10 -76
13 -95 6z"/>
</g>
</svg>
